<?xml version="1.0" ?><!DOCTYPE svg  PUBLIC '-//W3C//DTD SVG 1.1//EN'  'http://www.w3.org/Graphics/SVG/1.1/DTD/svg11.dtd'><!-- Uploaded to: SVG Repo, www.svgrepo.com, Generator: SVG Repo Mixer Tools -->
<svg fill="white" width="20px" height="20px" viewBox="0 0 32 32" style="fill-rule:evenodd;clip-rule:evenodd;stroke-linejoin:round;stroke-miterlimit:2;" version="1.1" xml:space="preserve" xmlns="http://www.w3.org/2000/svg" xmlns:serif="http://www.serif.com/" xmlns:xlink="http://www.w3.org/1999/xlink"><path d="M4.019,15.977l0,9.011c0,0.795 0.316,1.558 0.879,2.121c0.563,0.563 1.326,0.879 2.121,0.879c0.638,-0 1.343,-0 1.981,-0c0.796,-0 1.559,-0.316 2.121,-0.879c0.563,-0.563 0.879,-1.326 0.879,-2.121c0,-1.486 0,-3.503 -0,-4.988c0,-0.796 -0.316,-1.559 -0.879,-2.121c-0.562,-0.563 -1.325,-0.879 -2.121,-0.879l-2.981,0l0,-1.023c0,-5.497 4.456,-9.952 9.952,-9.952l0.077,-0c5.496,-0 9.952,4.455 9.952,9.952l0,1.011l-2.981,-0c-0.795,-0 -1.558,0.316 -2.121,0.878c-0.563,0.563 -0.879,1.326 -0.879,2.122c0,1.491 0,3.52 0,5.012c0,0.796 0.316,1.559 0.879,2.121c0.563,0.563 1.326,0.879 2.121,0.879c0.638,0 1.343,0 1.981,0c0.796,0 1.559,-0.316 2.121,-0.879c0.563,-0.562 0.879,-1.325 0.879,-2.121l0,-9.023c-0,-6.601 -5.351,-11.952 -11.952,-11.952l-0.077,-0c-6.601,-0 -11.952,5.351 -11.952,11.952Z"/></svg>