<?xml version="1.0" encoding="UTF-8" standalone="no"?>
<svg width="236px" height="80px" viewBox="0 0 236 80" version="1.1" xmlns="http://www.w3.org/2000/svg" xmlns:xlink="http://www.w3.org/1999/xlink">
    <!-- Generator: Sketch 50.2 (55047) - http://www.bohemiancoding.com/sketch -->
    <title>Group 98</title>
    <desc>Created with Sketch.</desc>
    <defs></defs>
    <g id="Website" stroke="none" stroke-width="1" fill="none" fill-rule="evenodd">
        <g id="Group-98">
            <rect id="Rectangle-2" fill="#FFFFFF" x="0" y="0" width="236" height="80"></rect>
            <g id="Group-21" transform="translate(30.000000, 23.000000)">
                <path d="M56.6728964,9.91666667 C58.1499691,9.91666667 59.9311451,10.025982 61.6037127,10.5069694 L61.3864961,12.7807283 C60.12664,12.7370021 58.2802991,12.7151391 56.694618,12.7151391 C55.0872153,12.7151391 54.5224522,12.8025913 54.5224522,14.0925122 C54.5224522,15.1419394 54.9568854,15.4261592 56.0864116,15.7978313 L58.9319488,16.7816693 C61.3213312,17.6343288 62.1033109,19.011702 62.1033109,21.2198716 C62.1033109,24.6523729 60.6262381,25.5706217 56.5425664,25.5706217 C55.5868135,25.5706217 53.6970292,25.5050325 51.3945335,25.002182 L51.5900284,22.5972447 C54.3704006,22.6628339 55.5868135,22.7065601 56.5425664,22.7065601 C58.2802991,22.7065601 58.7581755,22.4660663 58.7581755,21.2417347 C58.7581755,20.1704445 58.345464,19.9080877 57.3462678,19.5801417 L54.3269573,18.5088515 C52.0461832,17.678055 51.2207602,16.3225449 51.2207602,14.0925122 C51.2207602,10.6381478 52.8064413,9.91666667 56.6728964,9.91666667 Z M74.4194909,22.684697 L74.5715425,25.1333604 C72.5297067,25.351991 69.9448294,25.351991 67.620612,25.351991 C65.6222194,25.351991 64.3406416,24.1713855 64.31892,22.3130249 L64.31892,13.1742634 C64.3406416,11.3159029 65.6222194,10.1352973 67.620612,10.1352973 C69.9448294,10.1352973 72.5297067,10.1352973 74.5715425,10.353928 L74.4194909,12.8244544 L68.6632515,12.8244544 C67.9464368,12.8244544 67.6423336,13.1524004 67.6423336,13.9394707 L67.6423336,16.2350926 L73.6157896,16.2350926 L73.6157896,18.6400299 L67.6423336,18.6400299 L67.6423336,21.5478176 C67.6423336,22.356751 67.9464368,22.684697 68.6632515,22.684697 L74.4194909,22.684697 Z M88.7775068,25.2864018 L85.2803199,25.2864018 L84.1507936,20.673295 C83.8684121,19.7113201 83.4339789,19.4052372 82.543391,19.4052372 L80.2191736,19.4052372 L80.2191736,25.2864018 L76.9609249,25.2864018 L76.9609249,10.2008865 C78.7638225,10.025982 79.9802353,10.0041189 82.6737209,10.0041189 C86.5836193,10.0041189 88.2127437,11.0098199 88.2127437,14.4641843 C88.2127437,16.5849017 87.4742073,17.9404118 85.3454848,18.2027685 L85.3454848,18.3120839 C86.1057429,18.4869884 87.1266608,19.033565 87.4742073,20.5858427 L88.7775068,25.2864018 Z M80.2191736,16.8253954 L82.6085559,16.8253954 C84.3462886,16.8253954 84.8676084,16.344408 84.8676084,14.682815 C84.8676084,12.9993589 84.3462886,12.5620976 82.6085559,12.5620976 L80.2191736,12.5839607 L80.2191736,16.8253954 Z M96.6190253,10.0041189 C100.767862,10.0041189 102.092883,11.0754091 102.092883,14.9233087 C102.092883,18.8149344 100.767862,19.8643615 97.0534585,19.8643615 C96.0759838,19.8643615 95.0985092,19.7987723 94.2296429,19.689457 L94.2296429,25.2864018 L90.9279509,25.2864018 L90.9279509,10.2008865 C92.7308485,10.025982 93.9255397,10.0041189 96.6190253,10.0041189 Z M94.2296429,17.3063829 L96.5538603,17.3063829 C98.2481496,17.2845198 98.7694694,16.8035323 98.7694694,14.9233087 C98.7694694,13.0430851 98.2481496,12.5620976 96.5538603,12.5620976 L94.2296429,12.5620976 L94.2296429,17.3063829 Z M117.341487,14.3330059 C119.187828,14.3330059 120.187024,15.36057 120.187024,17.2845198 L120.187024,25.2864018 L118.123467,25.2864018 L118.123467,17.8966856 C118.101745,16.6504909 117.710755,16.1257773 116.581229,16.1257773 C115.560311,16.1257773 114.865218,16.5630386 113.301259,17.699918 L113.301259,25.2864018 L111.281144,25.2864018 L111.281144,17.8966856 C111.281144,16.5849017 110.781546,16.1257773 109.738907,16.1257773 C108.761432,16.1257773 108.044617,16.5411756 106.458936,17.678055 L106.458936,25.2864018 L104.373657,25.2864018 L104.373657,14.6172258 L106.11139,14.6172258 L106.219998,16.2350926 C107.631906,15.010761 109.00037,14.3330059 110.477443,14.3330059 C111.911072,14.3330059 112.823382,14.9670348 113.170929,16.1913665 C114.582836,14.9451718 115.929579,14.3330059 117.341487,14.3330059 Z M128.267481,23.7778503 C129.353564,23.7778503 130.830637,23.6466719 131.981884,23.5154935 L132.177379,24.9147297 C131.13474,25.3738541 129.244956,25.5487586 127.985099,25.5487586 C124.292417,25.5487586 122.88051,24.0402071 122.88051,19.9299507 C122.88051,15.7103791 124.357582,14.3330059 127.789604,14.3330059 C131.091296,14.3330059 132.438039,15.5792007 132.438039,17.9185487 C132.438039,19.8424985 131.634338,20.9793779 129.853162,20.9793779 L125.096119,20.9793779 C125.313335,23.2968628 126.225645,23.7778503 128.267481,23.7778503 Z M127.898213,16.1257773 C125.834655,16.1257773 125.139562,16.8035323 125.052676,19.339648 L129.288399,19.339648 C130.178987,19.339648 130.331038,18.5744407 130.331038,17.9185487 C130.309317,16.6286278 129.70111,16.1257773 127.898213,16.1257773 Z M138.020505,16.2569557 L138.020505,22.2037096 C138.020505,23.2094106 138.389773,23.5592196 139.410691,23.5592196 L140.952929,23.5592196 L141.191867,25.1989495 C140.496774,25.3957171 139.25864,25.4831694 138.693877,25.4831694 C136.890979,25.4831694 135.935226,24.4118792 135.935226,22.4879294 L135.935226,16.2569557 L134.001999,16.2569557 L134.001999,14.7265411 L135.935226,14.6172258 L135.935226,11.4908074 L138.020505,11.4908074 L138.020505,14.6172258 L141.300476,14.6172258 L141.300476,16.2569557 L138.020505,16.2569557 Z M150.314964,14.3330059 L150.076025,16.3225449 L149.424376,16.3225449 C148.29485,16.3225449 147.25221,16.7816693 145.623086,17.5468766 L145.623086,25.2864018 L143.516085,25.2864018 L143.516085,14.6172258 L145.145209,14.6172258 L145.362426,16.2569557 C146.86122,15.0544871 148.403458,14.3330059 149.815366,14.3330059 L150.314964,14.3330059 Z M152.921563,10.0697081 L153.920759,10.0697081 C154.33347,10.0697081 154.528965,10.3102018 154.528965,10.681874 L154.528965,11.9062056 C154.528965,12.3216039 154.33347,12.5402345 153.920759,12.5402345 L152.921563,12.5402345 C152.508851,12.5402345 152.313356,12.3216039 152.313356,11.9062056 L152.313356,10.681874 C152.313356,10.3102018 152.508851,10.0697081 152.921563,10.0697081 Z M154.4638,25.2864018 L152.378521,25.2864018 L152.378521,14.6172258 L154.4638,14.6172258 L154.4638,25.2864018 Z M162.370484,14.3330059 C163.347958,14.3330059 164.825031,14.4641843 165.889392,14.8795826 L165.607011,16.2350926 C164.629536,16.1695034 163.478288,16.1257773 162.739752,16.1257773 C160.328648,16.1257773 159.503225,16.9784369 159.503225,19.9518138 C159.503225,22.9251907 160.328648,23.7778503 162.739752,23.7778503 C163.36968,23.7778503 164.759866,23.7341242 165.867671,23.5373566 L166.063166,24.9584558 C164.998804,25.351991 163.63034,25.5487586 162.370484,25.5487586 C158.65608,25.5487586 157.309338,24.0620701 157.309338,19.9518138 C157.309338,15.8196944 158.677802,14.3330059 162.370484,14.3330059 Z M172.080065,14.3330059 C173.470251,14.354869 175.29487,14.4860474 176.59817,14.704678 L176.424397,16.2350926 C175.099375,16.1913665 173.730911,16.1257773 172.40589,16.1257773 C170.516106,16.1257773 169.929621,16.1476404 169.929621,17.3063829 C169.929621,18.3339469 170.429219,18.4213992 171.428415,18.7056191 L174.426004,19.4489633 C176.142015,19.9080877 176.902273,20.5858427 176.902273,22.4442033 C176.902273,25.0677712 175.468644,25.5268955 172.297282,25.5268955 C171.580467,25.5268955 169.929621,25.5050325 168.08328,25.2208126 L168.235331,23.6466719 C169.212806,23.7341242 170.494384,23.7559872 171.862848,23.7559872 C174.187066,23.7559872 174.860437,23.5373566 174.860437,22.4442033 C174.860437,21.4603653 174.252231,21.35105 173.253034,21.0886932 L170.298889,20.345349 C168.539435,19.8862246 167.887785,19.0554281 167.887785,17.3063829 C167.887785,14.8795826 169.125919,14.3111429 172.080065,14.3330059 Z" id="SERPmetrics" fill="#383C47"></path>
                <path d="M3.80534682,1.93041727 C3.80534682,2.93227039 2.99837341,3.74414142 2.00252886,3.74414142 C1.00774472,3.74414142 0.20077131,2.93227039 0.20077131,1.93041727 C0.20077131,0.92891992 1.00774472,0.116693119 2.00252886,0.116693119 C2.99837341,0.116693119 3.80534682,0.92891992 3.80534682,1.93041727 Z" id="Shape" stroke="#35C2FF" stroke-width="1.45521917"></path>
                <ellipse id="Oval" stroke="#35C2FF" stroke-width="1.45521917" cx="10.8424755" cy="7.11365523" rx="1.8019932" ry="1.81372415"></ellipse>
                <ellipse id="Oval" stroke="#35C2FF" stroke-width="1.45521917" cx="19.7687868" cy="1.93077304" rx="1.8019932" ry="1.81372415"></ellipse>
                <path d="M30.4106087,7.11365523 C30.4106087,8.11550835 29.6036353,8.92737938 28.6088512,8.92737938 C27.6130066,8.92737938 26.8059154,8.11538976 26.8059154,7.11365523 C26.8059154,6.1119207 27.6130066,5.29993108 28.6088512,5.29993108 C29.6036353,5.29993108 30.4106087,6.1119207 30.4106087,7.11365523 Z" id="Shape" stroke="#35C2FF" stroke-width="1.45521917"></path>
                <ellipse id="Oval" stroke="#35C2FF" stroke-width="1.45521917" cx="10.8427111" cy="17.3933229" rx="1.80222884" ry="1.81396133"></ellipse>
                <ellipse id="Oval" stroke="#35C2FF" stroke-width="1.45521917" cx="1.91687115" cy="22.5763236" rx="1.80234667" ry="1.81407992"></ellipse>
                <ellipse id="Oval" stroke="#35C2FF" stroke-width="1.45521917" cx="10.8424755" cy="27.6728719" rx="1.8019932" ry="1.81372415"></ellipse>
                <ellipse id="Oval" stroke="#35C2FF" stroke-width="1.45521917" cx="19.7683155" cy="22.5763236" rx="1.8019932" ry="1.81372415"></ellipse>
                <ellipse id="Oval" stroke="#35C2FF" stroke-width="1.45521917" cx="19.7683155" cy="33.0287777" rx="1.8019932" ry="1.81372415"></ellipse>
                <ellipse id="Oval" stroke="#35C2FF" stroke-width="1.45521917" cx="28.7801666" cy="27.8457769" rx="1.80222884" ry="1.81396133"></ellipse>
                <ellipse id="Oval" stroke="#35C2FF" stroke-width="1.45521917" cx="37.6201132" cy="32.9424438" rx="1.8019932" ry="1.81372415"></ellipse>
                <ellipse id="Oval" stroke="#35C2FF" stroke-width="1.45521917" cx="28.6942733" cy="17.4797754" rx="1.8019932" ry="1.81372415"></ellipse>
                <ellipse id="Oval" stroke="#35C2FF" stroke-width="1.45521917" cx="19.7683155" cy="12.2967746" rx="1.8019932" ry="1.81372415"></ellipse>
                <ellipse id="Oval" stroke="#35C2FF" stroke-width="1.45521917" cx="37.6201132" cy="12.2105593" rx="1.8019932" ry="1.81372415"></ellipse>
                <path d="M3.03266006,2.62168169 L9.29792671,6.33593829" id="Shape" stroke="#35C2FF" stroke-width="1.45521917"></path>
                <path d="M12.2158266,6.07693648 L18.2236489,2.62168169" id="Shape" stroke="#35C2FF" stroke-width="1.45521917"></path>
                <path d="M21.1417844,32.0781557 L27.1490176,28.6230195" id="Shape" stroke="#35C2FF" stroke-width="1.45521917"></path>
                <path d="M21.5708978,2.96701742 L27.063949,6.24984153" id="Shape" stroke="#35C2FF" stroke-width="1.45521917"></path>
                <path d="M30.324951,28.4503517 L35.81812,31.73282" id="Shape" stroke="#35C2FF" stroke-width="1.45521917"></path>
                <path d="M36.0754466,13.1601139 L30.1530465,16.5291534" id="Shape" stroke="#35C2FF" stroke-width="1.45521917"></path>
                <path d="M21.2274422,13.1601139 L27.063949,16.5291534" id="Shape" stroke="#35C2FF" stroke-width="1.45521917"></path>
                <path d="M12.1302868,28.5362112 L17.9663223,31.9052507" id="Shape" stroke="#35C2FF" stroke-width="1.45521917"></path>
                <path d="M10.8427111,8.92749797 L10.8427111,15.2334328" id="Shape" stroke="#35C2FF" stroke-width="1.45521917"></path>
                <path d="M28.6940376,19.8118589 L28.6940376,26.1176752" id="Shape" stroke="#35C2FF" stroke-width="1.45521917"></path>
                <path d="M3.46177338,21.5394863 L9.12613999,18.3431147" id="Shape" stroke="#35C2FF" stroke-width="1.45521917"></path>
                <path d="M12.5594001,18.429923 L17.8801933,21.5394863" id="Shape" stroke="#35C2FF" stroke-width="1.45521917"></path>
            </g>
        </g>
    </g>
</svg>