
<svg id="Layer_1" data-name="Layer 1" xmlns="http://www.w3.org/2000/svg" viewBox="0 0 1000 1000"><defs><style>.cls-1{fill:#0192ee;}.cls-2{fill:#fff;}.cls-3{fill:#0092ef;}.cls-4{fill:#f7fafd;}.cls-5{fill:#f3f8fd;}.cls-6{fill:#f4f9fd;}.cls-7{fill:#eef5fd;}.cls-8{fill:#f1f7fd;}.cls-9{fill:#0593ee;}.cls-10{fill:#0693ee;}</style></defs><path class="cls-1" d="M875,504.07v70.14H523.79V504.07ZM725,529.21c-9.08-3.83-15.9-2.64-20.16,3.12-3.87,5.22-3.69,13.41.61,18.15,5.71,6.31,13.46,6.19,18.59,2.66l7.37,2V518.25H725v11Zm44,17.41-.69-1.43c-2.68,1-5.61,1.61-8,3.1-5,3.1-10.8.84-12.44-5.59h22.37c.38-8.49-4.5-14.65-12.13-15.78-8.1-1.19-15.24,3.55-17,11.28a14.17,14.17,0,0,0,9.59,16.4C758.38,557,765.9,553.73,769,546.62Zm-89-19.8c-8.34-.05-15,6.22-15,14.16a14.67,14.67,0,0,0,14.76,14.48c8.31,0,14.81-6.24,14.84-14.29S688.5,526.88,680,526.82ZM656.85,538l.78-1.41a14.64,14.64,0,0,0-28.42,5.84c.67,7.17,6.91,12.82,14.43,13.07a13.31,13.31,0,0,0,14-11.75c-3.16,1.35-6,2-8.07,3.57-3.52,2.61-8.15,2.82-11.2-.19a8.65,8.65,0,0,1-.42-11.6c2.72-3.18,7.14-3.53,10.79-1.31A76.49,76.49,0,0,0,656.85,538Zm-33.29-20.27c-6.63-.41-6.63-.41-8.69,4.71-.79,2-1.56,4-2.35,5.92l-12.45,31.08c4.68,1.43,7.7.5,8.66-4.41a19.79,19.79,0,0,1,1.26-3.14c4.48-11.32,9-22.59,13.57-34.21ZM820.63,540.9c-3.88,1.71-6.75,3.34-9.82,4.24-4.4,1.29-5.28,3.87-3.85,8.28,7-3.26,13.76-6.34,20.45-9.62a3.23,3.23,0,0,0,.06-5.75c-6.77-3.36-13.67-6.47-20.59-9.71-1.39,4.56-.21,7.11,4.08,8.4C814,537.67,816.91,539.27,820.63,540.9ZM592.82,552.12c1.56-4.83-.07-7.28-4.47-8.54-2.87-.83-5.52-2.44-9.14-4.09,3.86-1.71,6.68-3.35,9.73-4.23,4.47-1.3,5.16-4.06,3.87-8.31-6.95,3.27-13.88,6.44-20.71,9.81a3.15,3.15,0,0,0,.15,5.68C579,545.73,585.79,548.83,592.82,552.12Zm186.53-25v27.27h5.92c.22-.36.36-.48.36-.59.06-4,.07-7.94.17-11.9.15-5.46,2.61-8,8.05-8.39.94-.07,1.87-.2,2.77-.3v-6l-10.45,1.89Z"/><path class="cls-2" d="M125.19,453c.5-1,.74-2.26,1.51-2.88q87-69.63,174.1-139.16a3,3,0,0,1,.72-.24c12.82,10.17,25.81,20.45,38.78,30.75q67.32,53.4,134.6,106.83a37.87,37.87,0,0,1,3.24,3.22l-17.61,14-45.12,35.79-13.91,11c-1.16.81-2.35,1.58-3.45,2.45q-26,20.58-51.94,41.2Q324.53,573.18,303,590.48l-2.44.68q-22.62-18-45.26-35.92-27.06-21.3-54.21-42.45l-13.87-10.87-44.17-34.78Zm319-2L301.32,337.7,158.49,451.88,301.33,564.34Z"/><path class="cls-3" d="M401.5,512.34l13.91-11.06,45.12,35.62V465.49l17.61-14c.1,1.12.27,2.25.27,3.37q0,46.18-.09,92.38a7.6,7.6,0,0,1-2.47,5.23Q389.55,620.35,303.09,688c-.54.42-1.12.8-1.85,1.32l-41.75-33.06Q194.12,604.47,128.71,552.7c-2.54-2-3.73-4-3.71-7.37.19-30.79.16-61.58.19-92.36l17.89,14.17v69.7l44.17-34.92,13.87,10.87L153.19,550.6l99.57,78.28,47.83-37.72,2.44-.68,47.7,38.43,99.56-78.31c-4.23-3.29-7.82-6.05-11.38-8.85Q420.19,527.05,401.5,512.34Z"/><path class="cls-2" d="M627.24,471.06H641c.09-2.13.18-4.07.27-6.31H655.9V485H612.37V423H656v34.47H627.24Zm-.12-27.82h13.8v-6.35h-13.8Z"/><path class="cls-2" d="M874.31,423v34.4H845.67V471h13.85v-6.23h14.7V485H830.67V423Zm-28.82,20.14h13.89v-6.32H845.49Z"/><path class="cls-2" d="M706.81,485.11H663.43V443.64H692v-6.77H663.45V423h43.36ZM678,457.83v13.23h14.08V457.83Z"/><path class="cls-2" d="M539.7,437v34h14.17c.1-2.05.19-4,.29-6.25h14.31V485H525.13V423h43.36v20.58H554.21c-.09-2.11-.18-4.18-.29-6.57Z"/><path class="cls-2" d="M750.63,471.26V485H721.34V436.75h-7.06V422.89h6.77V409.15h15.19v13.51h14.32v13.8h-14v34.8Z"/><path class="cls-2" d="M794.27,464.39h14.25V423h14.86v40a4,4,0,0,1-1,2.6c-6.83,6.59-13.73,13.09-20.73,19.74-7-6.59-13.84-12.95-20.53-19.47a5.78,5.78,0,0,1-1.31-3.76c-.1-12.91-.06-25.82-.06-39.06h14.6Z"/><path class="cls-2" d="M604.89,436.7H590.72V485H575.83V422.9h29.06Z"/><path class="cls-2" d="M772.36,485H757.94V423h14.42Z"/><path class="cls-2" d="M772.47,402.26v13.56H757.91V402.26Z"/><path class="cls-4" d="M725,529.21v-11h6.41v36.87l-7.37-2c-5.13,3.53-12.88,3.65-18.59-2.66-4.3-4.74-4.48-12.93-.61-18.15C709.07,526.57,715.89,525.38,725,529.21Zm-16.1,11.95a8,8,0,0,0,7.68,8.31h.51a8.47,8.47,0,0,0,8.22-8.49,8.56,8.56,0,0,0-8.42-8.32C712.25,532.66,708.86,536.27,708.9,541.16Z"/><path class="cls-5" d="M769,546.62c-3.07,7.11-10.59,10.4-18.3,8a14.17,14.17,0,0,1-9.59-16.4c1.76-7.73,8.9-12.47,17-11.28,7.63,1.13,12.51,7.29,12.13,15.78h-22.4c1.64,6.43,7.45,8.69,12.44,5.59,2.39-1.49,5.32-2.1,8-3.1Zm-21-9h14.87c-4-7.09-10.34-7.14-14.87,0Z"/><path class="cls-6" d="M680,526.82c8.46.06,14.67,6.14,14.65,14.35,0,8.05-6.53,14.32-14.84,14.29A14.67,14.67,0,0,1,665.09,541C665.09,533,671.7,526.77,680,526.82Zm8,14.34a8.13,8.13,0,0,0-7.75-8.49h-.32a8.41,8.41,0,0,0-.2,16.81,8.13,8.13,0,0,0,8.27-8v-.32Z"/><path class="cls-5" d="M656.85,538a75.88,75.88,0,0,1-8.13-3.78c-3.65-2.22-8.07-1.87-10.79,1.31a8.65,8.65,0,0,0,.42,11.6c3,3,7.68,2.8,11.2.19,2.11-1.57,4.91-2.22,8.07-3.57a13.31,13.31,0,0,1-14,11.75c-7.52-.25-13.76-5.9-14.43-13.07a14.64,14.64,0,0,1,28.42-5.84Z"/><path class="cls-5" d="M623.56,517.68C619,529.3,614.47,540.57,610,551.84a19.79,19.79,0,0,0-1.26,3.14c-1,4.91-4,5.84-8.66,4.41l12.45-31.08c.79-2,1.56-3.95,2.35-5.92C616.93,517.27,616.93,517.27,623.56,517.68Z"/><path class="cls-7" d="M820.63,540.9c-3.72-1.63-6.59-3.23-9.67-4.16-4.29-1.29-5.47-3.84-4.08-8.4,6.92,3.24,13.82,6.35,20.59,9.71a3.23,3.23,0,0,1-.06,5.75c-6.69,3.28-13.47,6.36-20.45,9.62-1.43-4.41-.55-7,3.85-8.28C813.88,544.24,816.75,542.61,820.63,540.9Z"/><path class="cls-8" d="M592.82,552.12c-7-3.29-13.85-6.39-20.57-9.68a3.15,3.15,0,0,1-.15-5.68c6.83-3.37,13.76-6.54,20.71-9.81,1.29,4.25.6,7-3.87,8.31-3.05.88-5.87,2.52-9.73,4.23,3.62,1.65,6.27,3.26,9.14,4.09C592.75,544.84,594.38,547.29,592.82,552.12Z"/><path class="cls-5" d="M779.35,527.12l6.82,2,10.45-1.89v6c-.9.1-1.83.23-2.77.3-5.44.42-7.9,2.93-8.05,8.39-.1,4-.11,7.93-.17,11.9,0,.11-.14.23-.36.59h-5.92Z"/><path class="cls-9" d="M708.9,541.16c0-4.89,3.35-8.5,8-8.5a8.56,8.56,0,0,1,8.42,8.32,8.47,8.47,0,0,1-8.22,8.49,8,8,0,0,1-8.2-7.79A4.51,4.51,0,0,1,708.9,541.16Z"/><path class="cls-9" d="M748,537.63c4.54-7.15,10.85-7.1,14.87,0Z"/><path class="cls-10" d="M688,541.16a8.13,8.13,0,0,1-8,8.31h-.32a8.41,8.41,0,0,1,.2-16.81,8.13,8.13,0,0,1,8.08,8.18C688,541,688,541.05,688,541.16Z"/><path class="cls-3" d="M277.49,519.94c-29.57-23-58.29-45.28-87.68-68.09l87.67-70.67c0,9.32.11,17.63-.12,25.92,0,1.21-1.48,2.6-2.59,3.54q-22.41,18.93-44.93,37.74c-1.51,1.27-3,2.56-5,4.23,1.23,1,2.23,1.91,3.29,2.73,15.35,11.89,30.67,23.82,46.1,35.6a7.25,7.25,0,0,1,3.31,6.7C277.33,504.69,277.49,511.76,277.49,519.94Z"/><path class="cls-3" d="M326.88,519.93c0-9-.16-16.89.14-24.78.06-1.41,1.78-3,3.11-4.08q22.94-17.93,46-35.69c1-.77,1.92-1.59,3.33-2.75-3.41-2.89-6.59-5.62-9.8-8.32-13-10.93-26-21.93-39.16-32.69a9.15,9.15,0,0,1-3.73-8.28c.27-7,.08-14.07.08-22.15l87.68,70.64Z"/><path class="cls-2" d="M302.18,413.49C318.07,426,333.74,438.3,349.85,451l-47.64,37.47L254.53,451Z"/></svg>