
<svg id="Layer_1" data-name="Layer 1" xmlns="http://www.w3.org/2000/svg" viewBox="0 0 2493 1011"><defs><style>.cls-1,.cls-17,.cls-23,.cls-4,.cls-8{fill:#fff;}.cls-1,.cls-20,.cls-21,.cls-22,.cls-23,.cls-24,.cls-3,.cls-4,.cls-5,.cls-9{stroke:#141c3a;}.cls-1,.cls-19,.cls-2,.cls-20,.cls-21,.cls-22,.cls-24,.cls-3,.cls-4,.cls-5,.cls-9{stroke-width:8px;}.cls-1,.cls-14,.cls-15,.cls-16,.cls-19,.cls-2,.cls-22,.cls-23,.cls-24,.cls-5,.cls-6,.cls-8{fill-rule:evenodd;}.cls-13,.cls-15,.cls-2,.cls-24,.cls-7{fill:#eb1900;}.cls-2{stroke:#000;}.cls-18,.cls-20,.cls-3{fill:none;}.cls-12,.cls-5,.cls-6{fill:#141c3a;}.cls-7{stroke:#fff;stroke-width:6px;}.cls-10,.cls-16,.cls-22,.cls-9{fill:#ffbe00;}.cls-11{fill:#293347;}.cls-14{fill:#535b6b;isolation:isolate;opacity:0.54;}.cls-18{stroke:#ff0700;stroke-width:9px;}.cls-19,.cls-21{fill:#fffffe;}.cls-19{stroke:#ffc800;}.cls-20{stroke-linecap:square;}.cls-23{stroke-width:8.4px;}</style></defs><g id="Assets"><g id="Group-28"><path id="Case" class="cls-1" d="M1486,126H512a28,28,0,0,0-28,28V821a28,28,0,0,0,28,28h974a28,28,0,0,0,28-28V154a28,28,0,0,0-28-28Z"/><path id="Case-2" data-name="Case" class="cls-2" d="M1438,188H559a12,12,0,0,0-12,12V697a12,12,0,0,0,12,12h879a12,12,0,0,0,12-12V200a12,12,0,0,0-12-12Z"/><path id="Case-3" data-name="Case" class="cls-1" d="M1073.35,849H925.65l-10,129h167.64Z"/><path id="Keyboard" class="cls-1" d="M1144,1007H855a1,1,0,0,1-1-1V992.5A14.51,14.51,0,0,1,868.51,978h262A14.51,14.51,0,0,1,1145,992.5V1006a1,1,0,0,1-.29.72A1,1,0,0,1,1144,1007Z"/><circle id="Oval-6" class="cls-3" cx="999.5" cy="784.5" r="18.5"/><rect id="Case-4" data-name="Case" class="cls-4" x="389" y="618" width="198" height="389" rx="24"/><path id="Case-5" data-name="Case" class="cls-5" d="M587,662H389V949.3H587Z"/><path id="Rectangle-11" class="cls-6" d="M445,636h87a4,4,0,0,1,4,4h0a4,4,0,0,1-4,4H445a4,4,0,0,1-4-4h0A4,4,0,0,1,445,636Z"/><path id="Rectangle-11-2" data-name="Rectangle-11" class="cls-6" d="M488.4,966h0a11.39,11.39,0,0,1,11.4,11.4h0a11.39,11.39,0,0,1-11.4,11.4h0A11.39,11.39,0,0,1,477,977.4h0A11.39,11.39,0,0,1,488.4,966Z"/><circle id="Oval-6-2" data-name="Oval-6" class="cls-7" cx="445" cy="805" r="15"/><g id="Group-73"><path id="Rectangle-11-3" data-name="Rectangle-11" class="cls-8" d="M484,779h62a4,4,0,0,1,4,4h0a4,4,0,0,1-4,4H484a4,4,0,0,1-4-4h0A4,4,0,0,1,484,779Z"/><path id="Rectangle-11-4" data-name="Rectangle-11" class="cls-8" d="M484,801h42a4,4,0,0,1,4,4h0a4,4,0,0,1-4,4H484a4,4,0,0,1-4-4h0A4,4,0,0,1,484,801Z"/><path id="Rectangle-11-5" data-name="Rectangle-11" class="cls-8" d="M484,823h22a4,4,0,0,1,4,4h0a4,4,0,0,1-4,4H484a4,4,0,0,1-4-4h0A4,4,0,0,1,484,823Z"/></g><circle id="Oval-7" class="cls-9" cx="287.5" cy="653.5" r="153.5"/><path id="Case-6" data-name="Case" class="cls-1" d="M1940,468H1256a28,28,0,0,0-28,28V937a28,28,0,0,0,28,28h684a28,28,0,0,0,28-28V496a28,28,0,0,0-28-28Z"/><path id="Keyboard-2" data-name="Keyboard" class="cls-1" d="M2018,965H1178a1,1,0,0,0-1,1v20a21,21,0,0,0,21,21h800a21,21,0,0,0,21-21V966a1,1,0,0,0-1-1Z"/><path id="Notch" class="cls-1" d="M1653.29,965.45h-112a31,31,0,0,0,29,20h54a31,31,0,0,0,29-20Z"/><rect id="Screen" class="cls-10" x="1257" y="511" width="681.41" height="411.85" rx="8"/><g id="Group-69"><circle id="Oval-3" class="cls-11" cx="977" cy="197" r="5"/><path id="Case-7" data-name="Case" class="cls-5" d="M1145,59H699V494a20,20,0,0,0,20,20h406a20,20,0,0,0,20-20Z"/><path id="Case-8" data-name="Case" class="cls-1" d="M1125,4H719a20,20,0,0,0-20,20V51h446V24a20,20,0,0,0-20-20Z"/><circle id="Oval-5" class="cls-12" cx="734" cy="28" r="9"/><circle id="Oval-5-2" data-name="Oval-5" class="cls-13" cx="764" cy="28" r="9"/><circle id="Oval-5-3" data-name="Oval-5" class="cls-10" cx="794" cy="28" r="9"/><g id="Group-72"><path id="Rectangle-11-6" data-name="Rectangle-11" class="cls-14" d="M751,343h10a4,4,0,0,1,4,4h0a4,4,0,0,1-4,4H751a4,4,0,0,1-4-4h0A4,4,0,0,1,751,343Z"/><path id="Rectangle-11-7" data-name="Rectangle-11" class="cls-14" d="M751,143h10a4,4,0,0,1,4,4h0a4,4,0,0,1-4,4H751a4,4,0,0,1-4-4h0A4,4,0,0,1,751,143Z"/><path id="Rectangle-11-8" data-name="Rectangle-11" class="cls-15" d="M781,143h27a4,4,0,0,1,0,8H781a4,4,0,0,1,0-8Z"/><path id="Rectangle-11-9" data-name="Rectangle-11" class="cls-16" d="M826,143h27a4,4,0,0,1,0,8H826a4,4,0,0,1,0-8Z"/><path id="Rectangle-11-10" data-name="Rectangle-11" class="cls-15" d="M871,143h50a4,4,0,0,1,0,8H871a4,4,0,0,1,0-8Z"/><path id="Rectangle-11-11" data-name="Rectangle-11" class="cls-15" d="M939,143h74a4,4,0,0,1,0,8H939a4,4,0,0,1,0-8Z"/><path id="Rectangle-11-12" data-name="Rectangle-11" class="cls-14" d="M751,183h10a4,4,0,0,1,4,4h0a4,4,0,0,1-4,4H751a4,4,0,0,1-4-4h0A4,4,0,0,1,751,183Z"/><path id="Rectangle-11-13" data-name="Rectangle-11" class="cls-14" d="M751,223h10a4,4,0,0,1,4,4h0a4,4,0,0,1-4,4H751a4,4,0,0,1-4-4h0A4,4,0,0,1,751,223Z"/><path id="Rectangle-11-14" data-name="Rectangle-11" class="cls-14" d="M751,263h10a4,4,0,0,1,4,4h0a4,4,0,0,1-4,4H751a4,4,0,0,1-4-4h0A4,4,0,0,1,751,263Z"/><path id="Rectangle-11-15" data-name="Rectangle-11" class="cls-14" d="M751,303h10a4,4,0,0,1,4,4h0a4,4,0,0,1-4,4H751a4,4,0,0,1-4-4h0A4,4,0,0,1,751,303Z"/><path id="Rectangle-11-16" data-name="Rectangle-11" class="cls-14" d="M751,383h10a4,4,0,0,1,4,4h0a4,4,0,0,1-4,4H751a4,4,0,0,1-4-4h0A4,4,0,0,1,751,383Z"/><path id="Rectangle-11-17" data-name="Rectangle-11" class="cls-14" d="M751,423h10a4,4,0,0,1,4,4h0a4,4,0,0,1-4,4H751a4,4,0,0,1-4-4h0A4,4,0,0,1,751,423Z"/><path id="Rectangle-11-18" data-name="Rectangle-11" class="cls-15" d="M781,183h62a4,4,0,0,1,4,4h0a4,4,0,0,1-4,4H781a4,4,0,0,1-4-4h0A4,4,0,0,1,781,183Z"/><path id="Rectangle-11-19" data-name="Rectangle-11" class="cls-16" d="M861,183H973a4,4,0,0,1,4,4h0a4,4,0,0,1-4,4H861a4,4,0,0,1-4-4h0A4,4,0,0,1,861,183Z"/><path id="Rectangle-11-20" data-name="Rectangle-11" class="cls-15" d="M991,183h42a4,4,0,0,1,4,4h0a4,4,0,0,1-4,4H991a4,4,0,0,1-4-4h0A4,4,0,0,1,991,183Z"/><path id="Rectangle-11-21" data-name="Rectangle-11" class="cls-16" d="M781,223h42a4,4,0,0,1,4,4h0a4,4,0,0,1-4,4H781a4,4,0,0,1-4-4h0A4,4,0,0,1,781,223Z"/><path id="Rectangle-11-22" data-name="Rectangle-11" class="cls-15" d="M841,223h42a4,4,0,0,1,4,4h0a4,4,0,0,1-4,4H841a4,4,0,0,1-4-4h0A4,4,0,0,1,841,223Z"/><path id="Rectangle-11-23" data-name="Rectangle-11" class="cls-15" d="M901,223h22a4,4,0,0,1,4,4h0a4,4,0,0,1-4,4H901a4,4,0,0,1-4-4h0A4,4,0,0,1,901,223Z"/><path id="Rectangle-11-24" data-name="Rectangle-11" class="cls-15" d="M781,263h92a4,4,0,0,1,4,4h0a4,4,0,0,1-4,4H781a4,4,0,0,1-4-4h0A4,4,0,0,1,781,263Z"/><path id="Rectangle-11-25" data-name="Rectangle-11" class="cls-15" d="M891,263h62a4,4,0,0,1,4,4h0a4,4,0,0,1-4,4H891a4,4,0,0,1-4-4h0A4,4,0,0,1,891,263Z"/><path id="Rectangle-11-26" data-name="Rectangle-11" class="cls-15" d="M781,303h92a4,4,0,0,1,4,4h0a4,4,0,0,1-4,4H781a4,4,0,0,1-4-4h0A4,4,0,0,1,781,303Z"/><path id="Rectangle-11-27" data-name="Rectangle-11" class="cls-16" d="M891,303h122a4,4,0,0,1,4,4h0a4,4,0,0,1-4,4H891a4,4,0,0,1-4-4h0A4,4,0,0,1,891,303Z"/><path id="Rectangle-11-28" data-name="Rectangle-11" class="cls-15" d="M781,343h62a4,4,0,0,1,4,4h0a4,4,0,0,1-4,4H781a4,4,0,0,1-4-4h0A4,4,0,0,1,781,343Z"/><path id="Rectangle-11-29" data-name="Rectangle-11" class="cls-16" d="M861,343h62a4,4,0,0,1,4,4h0a4,4,0,0,1-4,4H861a4,4,0,0,1-4-4h0A4,4,0,0,1,861,343Z"/><path id="Rectangle-11-30" data-name="Rectangle-11" class="cls-15" d="M941,343h32a4,4,0,0,1,4,4h0a4,4,0,0,1-4,4H941a4,4,0,0,1-4-4h0A4,4,0,0,1,941,343Z"/><path id="Rectangle-11-31" data-name="Rectangle-11" class="cls-15" d="M781,383H903a4,4,0,0,1,4,4h0a4,4,0,0,1-4,4H781a4,4,0,0,1-4-4h0A4,4,0,0,1,781,383Z"/><path id="Rectangle-11-32" data-name="Rectangle-11" class="cls-16" d="M781,423h52a4,4,0,0,1,4,4h0a4,4,0,0,1-4,4H781a4,4,0,0,1-4-4h0A4,4,0,0,1,781,423Z"/></g></g><g id="Group-68"><path id="Case-9" data-name="Case" class="cls-1" d="M2142,365H1594V755a28,28,0,0,0,28,28h492a28,28,0,0,0,28-28Z"/><path id="Case-10" data-name="Case" class="cls-5" d="M2114,315H1622a28,28,0,0,0-28,28v30h548V343a28,28,0,0,0-28-28Z"/><circle id="Oval-5-4" data-name="Oval-5" class="cls-17" cx="1637" cy="344" r="9"/><circle id="Oval-5-5" data-name="Oval-5" class="cls-13" cx="1667" cy="344" r="9"/><circle id="Oval-5-6" data-name="Oval-5" class="cls-10" cx="1697" cy="344" r="9"/><g id="Group-61"><circle id="Oval-6-3" data-name="Oval-6" class="cls-18" cx="1933" cy="574" r="100"/><path id="Rectangle-12" class="cls-19" d="M1946,462h-24v24h24Z"/><path id="Rectangle-12-2" data-name="Rectangle-12" class="cls-19" d="M1945,662h-24v24h24Z"/><path id="Rectangle-12-3" data-name="Rectangle-12" class="cls-19" d="M1845,563h-24v24h24Z"/><line id="Line" class="cls-20" x1="2033" y1="484" x2="2033" y2="559"/><line id="Line-2" data-name="Line" class="cls-20" x1="2033" y1="589" x2="2033" y2="664"/><circle id="Oval-5-7" data-name="Oval-5" class="cls-12" cx="2033" cy="481" r="12"/><circle id="Oval-5-8" data-name="Oval-5" class="cls-12" cx="2033" cy="671" r="12"/><path id="Rectangle-12-4" data-name="Rectangle-12" class="cls-19" d="M2044,563h-24v24h24Z"/></g><g id="Group-60"><rect id="Rectangle-15" class="cls-12" x="1688" y="449" width="70" height="70" rx="12"/><rect id="Rectangle-15-2" data-name="Rectangle-15" class="cls-10" x="1688" y="539" width="70" height="70" rx="12"/><rect id="Rectangle-15-3" data-name="Rectangle-15" class="cls-13" x="1688" y="629" width="70" height="70" rx="12"/></g></g><g id="Group-65"><g id="Group-64"><circle id="Oval-8" class="cls-4" cx="2429" cy="911" r="60"/><circle id="Oval-8-2" data-name="Oval-8" class="cls-4" cx="2429" cy="911" r="35"/></g><circle id="Oval-8-3" data-name="Oval-8" class="cls-21" cx="2349" cy="820" r="20"/><path id="Rectangle-16" class="cls-1" d="M2430.93,815H2261a4,4,0,0,0-4,4V987a20,20,0,0,0,20,20h137.93a20,20,0,0,0,20-20V819a4,4,0,0,0-4-4Z"/><path id="Rectangle-16-2" data-name="Rectangle-16" class="cls-22" d="M2386,869h-36a8,8,0,0,0-8,8v48a8,8,0,0,0,8,8h36a8,8,0,0,0,8-8V877a8,8,0,0,0-8-8Z"/><line id="Line-2-2" data-name="Line-2" class="cls-20" x1="2367.5" y1="816.5" x2="2367.5" y2="862"/></g><g id="Group-78"><path id="Oval-8-4" data-name="Oval-8" class="cls-23" d="M2143,952.2a58.79,58.79,0,0,0-58.65,54.6h117.3A58.79,58.79,0,0,0,2143,952.2Z"/><path id="Rectangle-11-33" data-name="Rectangle-11" class="cls-6" d="M2143,953h0a4,4,0,0,1,4,4v5a4,4,0,0,1-4,4h0a4,4,0,0,1-4-4v-5A4,4,0,0,1,2143,953Z"/></g><g id="Group-27"><path id="Rectangle-17" class="cls-24" d="M305,889H63a59,59,0,1,0,0,118H305a6,6,0,0,0,6-6v-9.29a8,8,0,0,0-7.43-8c-13.85-1-24.14-4.49-31-10.2-7.27-6-11-14.48-11-25.53s3.77-19.61,11.13-25.77c6.95-5.82,17.32-9.52,31.32-10.78a8,8,0,0,0,7.05-7.94V895a6,6,0,0,0-6-6Z"/><path id="Rectangle-19" class="cls-1" d="M292.79,912H62a36,36,0,1,0,0,72q163.35,0,232.3.62h0c-8.05-2.17-17.28-5.25-23.83-12-5.26-5.4-9-13.1-9-24.64s3.78-19.37,9.12-24.76C276.75,917.06,285.18,914,292.79,912Z"/><path id="Rectangle-18" class="cls-6" d="M57.93,957H260.07a4,4,0,0,1,0,8H57.93a4,4,0,0,1,0-8Z"/><path id="Rectangle-18-2" data-name="Rectangle-18" class="cls-6" d="M57.93,931H260.07a4,4,0,0,1,0,8H57.93a4,4,0,0,1,0-8Z"/></g><g id="Group-94"><path id="Shape" class="cls-12" d="M250.15,689.36q-7.35-6.55-14.72-13.09L212,655.41c-1.79-1.58-3.58-3.18-5.35-4.76V657l14.72-13.09Q233.09,633.43,244.8,623c1.79-1.58,3.58-3.18,5.35-4.76a4.45,4.45,0,0,0,0-6.3,4.59,4.59,0,0,0-6.34,0L229.09,625q-11.73,10.43-23.44,20.86c-1.79,1.58-3.59,3.19-5.36,4.77a4.49,4.49,0,0,0,0,6.3L215,670q11.73,10.43,23.44,20.86c1.79,1.58,3.58,3.19,5.35,4.77a4.59,4.59,0,0,0,6.34,0c1.57-1.7,1.86-4.63,0-6.3Z"/><path id="Shape-2" data-name="Shape" class="cls-12" d="M324.89,618.25l14.72,13.08q11.73,10.42,23.44,20.86c1.79,1.58,3.58,3.19,5.35,4.77v-6.3l-14.72,13.09Q342,674.16,330.24,684.6c-1.79,1.58-3.58,3.19-5.35,4.77a4.45,4.45,0,0,0,0,6.3,4.6,4.6,0,0,0,6.34,0L346,682.58l23.44-20.86,5.36-4.76a4.49,4.49,0,0,0,0-6.3L360,637.57l-23.44-20.86c-1.79-1.58-3.58-3.18-5.35-4.76a4.57,4.57,0,0,0-6.34,0,4.5,4.5,0,0,0,0,6.3Z"/><path id="Shape-3" data-name="Shape" class="cls-12" d="M271.54,715.57c1.34-4,2.66-8,4-12q4.8-14.46,9.61-28.89,5.79-17.43,11.59-34.84l10-30.12c1.59-4.88,3.38-9.73,4.86-14.67l.07-.2a4.5,4.5,0,0,0-3.14-5.48,4.59,4.59,0,0,0-5.51,3.12c-1.35,4-2.67,8-4,12q-4.8,14.46-9.61,28.9-5.78,17.43-11.58,34.83l-10,30.12c-1.59,4.86-3.39,9.71-4.86,14.65l-.07.2a4.49,4.49,0,0,0,3.14,5.48,4.6,4.6,0,0,0,5.51-3.1Z"/></g></g></g></svg>