<svg id="Layer_1" data-name="Layer 1" xmlns="http://www.w3.org/2000/svg" viewBox="0 0 500 500"><defs><style>.cls-1{fill:#252525;}</style></defs><path class="cls-1" d="M417.48,450h-335A6.5,6.5,0,0,1,76,443.51V108.56a6.49,6.49,0,0,1,4.66-6.23l91.64-26.89a6.47,6.47,0,0,1,7.44,3l38.3,66.33a6.49,6.49,0,0,1-11.24,6.49L171.09,89.32,89,113.41V437H411V113.55L318.73,89.11l-35.87,62.13a6.49,6.49,0,0,1-11.24-6.49L310,78.32a6.48,6.48,0,0,1,7.28-3l101.89,27a6.5,6.5,0,0,1,4.82,6.28v335A6.49,6.49,0,0,1,417.48,450Z"/><path class="cls-1" d="M148,450H126.76a6.49,6.49,0,0,1-6.49-6.49V95.58a6.48,6.48,0,0,1,4.66-6.23l21.22-6.23a6.49,6.49,0,0,1,8.32,6.22V443.51A6.49,6.49,0,0,1,148,450Zm-14.73-13h8.24V98l-8.24,2.41Z"/><path class="cls-1" d="M373.24,450H352a6.49,6.49,0,0,1-6.48-6.49V91.23A6.5,6.5,0,0,1,353.66,85l21.23,5.61a6.47,6.47,0,0,1,4.83,6.27V443.51A6.49,6.49,0,0,1,373.24,450ZM358.5,437h8.25V101.84l-8.25-2.18Z"/><path class="cls-1" d="M212.45,154.48a6.28,6.28,0,0,1-1.67-.22,6.46,6.46,0,0,1-3.95-3l-42.05-72.8a6.5,6.5,0,0,1,2.38-8.86l32.41-18.71a6.48,6.48,0,0,1,8.86,2.38l42,72.78a6.5,6.5,0,0,1-2.36,8.87L215.7,153.61A6.44,6.44,0,0,1,212.45,154.48ZM179.27,77.57l35.56,61.56L236,126.9,200.44,65.36Z"/><path class="cls-1" d="M277.23,154.48a6.46,6.46,0,0,1-3.24-.87L241.58,134.9a6.5,6.5,0,0,1-2.37-8.87l42-72.78a6.48,6.48,0,0,1,8.86-2.38L322.5,69.58a6.49,6.49,0,0,1,2.37,8.86l-42,72.8a6.5,6.5,0,0,1-3.94,3A6.43,6.43,0,0,1,277.23,154.48ZM253.69,126.9l21.17,12.23,35.53-61.56L289.25,65.36Z"/><path class="cls-1" d="M276.57,80.81H213.11a6.46,6.46,0,0,1-5.61-3.24L197.19,59.74A6.5,6.5,0,0,1,202.81,50h83.44a6.49,6.49,0,0,1,6.49,6.49v1.07a6.62,6.62,0,0,1-.87,3.25l-9.68,16.76A6.48,6.48,0,0,1,276.57,80.81Zm-59.71-13h56l2.8-4.86H214.06Z"/><path class="cls-1" d="M250,199.64a17.11,17.11,0,1,1,17.1-17.11A17.12,17.12,0,0,1,250,199.64Zm0-21.23a4.13,4.13,0,1,0,4.13,4.12A4.13,4.13,0,0,0,250,178.41Z"/><path class="cls-1" d="M250,263.32a17.1,17.1,0,1,1,17.1-17.1A17.12,17.12,0,0,1,250,263.32Zm0-21.22a4.12,4.12,0,1,0,4.13,4.12A4.13,4.13,0,0,0,250,242.1Z"/><path class="cls-1" d="M250,327a17.11,17.11,0,1,1,17.1-17.11A17.13,17.13,0,0,1,250,327Zm0-21.23a4.13,4.13,0,1,0,4.13,4.12A4.13,4.13,0,0,0,250,305.78Z"/><path class="cls-1" d="M250,390.72a17.1,17.1,0,1,1,17.1-17.11A17.13,17.13,0,0,1,250,390.72Zm0-21.22a4.12,4.12,0,1,0,4.13,4.11A4.12,4.12,0,0,0,250,369.5Z"/></svg>