<svg id="Layer_1" data-name="Layer 1" xmlns="http://www.w3.org/2000/svg" viewBox="0 0 500 500"><defs><style>.cls-1{fill:#252525;}</style></defs><path class="cls-1" d="M184.28,430.19c-7.28,0-17.37-.11-31.49-.33l-5.15-.07a6.48,6.48,0,0,1-6.44-6c-.12-1.53-2.81-38.08,3.54-100.2,6.33-61.89,28.39-109.51,37.81-129.84l.62-1.34c4-8.6.11-13.17-7.64-21.14-5.32-5.48-11.36-11.69-11.36-20.32V56.49a6.51,6.51,0,0,1,1.93-4.62A6.59,6.59,0,0,1,170.75,50l35.84.47A6.49,6.49,0,0,1,213,57v.58c0,25.06,19.21,36.58,37,36.68,17.74-.1,36.9-11.56,37-36.5l0-.4a6.53,6.53,0,0,1,6.4-6.85L329.26,50a6.62,6.62,0,0,1,4.64,1.87,6.51,6.51,0,0,1,1.93,4.62V151c0,8.62-6,14.84-11.35,20.31-7.07,7.28-11,11.76-8.43,19.15a18.64,18.64,0,0,0,.81,2l.62,1.36c9.42,20.34,31.46,67.95,37.77,129.79,6.36,62.12,3.67,98.67,3.55,100.2a6.48,6.48,0,0,1-6.47,6l-6.67,0c-8.85,0-23.67.07-36.52.05-26.18-.05-26.18-.05-28.41-2.27a6.49,6.49,0,0,1,5.92-10.95c5.38.36,45.56.23,59,.19h.54c.49-12.72,1-45.19-3.81-91.9-6.1-59.68-27.51-105.91-36.65-125.66l-.64-1.4a32.92,32.92,0,0,1-1.31-3.28c-5.19-15.26,4.41-25.13,11.42-32.35,3.95-4.07,7.68-7.92,7.68-11.27V63.06l-23.14.31c-1.23,12.65-6.52,23.39-15.49,31.31A51.86,51.86,0,0,1,250,107.2c-13.05-.07-25.19-4.52-34.24-12.52S201.52,76,200.29,63.37l-23.13-.31V151c0,3.36,3.73,7.21,7.69,11.28,7.16,7.37,18,18.53,10.1,35.62l-.63,1.35c-9.15,19.75-30.57,66-36.67,125.71-4.78,46.79-4.3,79.3-3.81,92,25.66.37,40.56.36,44.34,0a6.49,6.49,0,0,1,8.7,6.1,6.59,6.59,0,0,1-2,4.67C203.09,429.47,202.36,430.19,184.28,430.19ZM287.2,416.78a6.49,6.49,0,0,1,4.6,6.21A6.48,6.48,0,0,0,287.2,416.78Zm-92.1,2.45a6.33,6.33,0,0,0-1.19,3.76A6.52,6.52,0,0,1,195.1,419.23Z"/><path class="cls-1" d="M311,201.64H189.06a6.49,6.49,0,0,1,0-13H311a6.49,6.49,0,0,1,0,13Z"/><path class="cls-1" d="M260.62,201.64H239.38a6.49,6.49,0,0,1-6.48-6.49V118.43a6.49,6.49,0,0,1,6.48-6.49h21.24a6.5,6.5,0,0,1,6.49,6.49v76.72A6.5,6.5,0,0,1,260.62,201.64Zm-14.75-13h8.26V124.92h-8.26Z"/><path class="cls-1" d="M242.85,450c-27.91,0-48.94-11.61-48.94-27a6.49,6.49,0,1,1,13,0c0,5.72,14,14,36,14s36-8.31,36-14a6.49,6.49,0,0,1,13,0C291.8,438.39,270.75,450,242.85,450Z"/><path class="cls-1" d="M200.4,429.48a6.47,6.47,0,0,1-5.81-3.6c-18.73-37.61,6.89-99.11,8-101.72a6.49,6.49,0,0,1,11.95,5h0c-.24.59-24.39,58.63-8.32,90.89a6.49,6.49,0,0,1-5.81,9.38Z"/><path class="cls-1" d="M285.31,429.5a6.48,6.48,0,0,1-5.81-9.38c16.1-32.31-8.86-90.25-9.12-90.83a6.49,6.49,0,0,1,11.9-5.19c1.13,2.59,27.61,64.14,8.84,101.8A6.49,6.49,0,0,1,285.31,429.5Z"/></svg>