
<svg id="Layer_1" data-name="Layer 1" xmlns="http://www.w3.org/2000/svg" viewBox="0 0 500 500"><defs><style>.cls-1{fill:#252525;}</style></defs><path class="cls-1" d="M443.51,407.18h-387A6.5,6.5,0,0,1,50,399.94L68.4,242.12l8.26-71.06a6.48,6.48,0,0,1,6.45-5.73H416.85a6.48,6.48,0,0,1,6.45,5.73l26.59,228.41a6.92,6.92,0,0,1,.11,1.22A6.49,6.49,0,0,1,443.51,407.18Zm-379.73-13H436.21L411.08,178.3H88.88L81.3,243.61Z"/><path class="cls-1" d="M330.31,178.3H169.65a6.49,6.49,0,0,1-6.49-6.49V135.56A42.79,42.79,0,0,1,205.9,92.82h88.16a42.79,42.79,0,0,1,42.73,42.74v36.25A6.48,6.48,0,0,1,330.31,178.3Zm-154.17-13H323.82V135.56a29.8,29.8,0,0,0-29.76-29.76H205.9a29.8,29.8,0,0,0-29.76,29.76Z"/><path class="cls-1" d="M144.29,270.41H126.53a6.48,6.48,0,0,1-6.48-6.49V235.49a6.49,6.49,0,0,1,6.48-6.49h17.76a6.5,6.5,0,0,1,6.5,6.49v28.43A6.49,6.49,0,0,1,144.29,270.41Zm-11.27-13h4.79V242H133Z"/><path class="cls-1" d="M371.38,270.41H353.61a6.49,6.49,0,0,1-6.49-6.49V235.49a6.5,6.5,0,0,1,6.49-6.49h17.77a6.49,6.49,0,0,1,6.49,6.49v28.43A6.48,6.48,0,0,1,371.38,270.41Zm-11.28-13h4.79V242H360.1Z"/><path class="cls-1" d="M337.77,374.92H162.22a6.49,6.49,0,1,1,0-13H337.77a6.49,6.49,0,1,1,0,13Z"/><path class="cls-1" d="M425.64,256.21H371.38a6.5,6.5,0,0,1,0-13h54.26a6.5,6.5,0,0,1,0,13Z"/><path class="cls-1" d="M353.61,256.21H144.29a6.5,6.5,0,0,1,0-13H353.61a6.5,6.5,0,0,1,0,13Z"/><path class="cls-1" d="M126.53,256.21H74a6.5,6.5,0,0,1,0-13h52.5a6.5,6.5,0,0,1,0,13Z"/></svg>