<svg id="Layer_1" data-name="Layer 1" xmlns="http://www.w3.org/2000/svg" viewBox="0 0 500 500"><defs><style>.cls-1{fill:#252525;}</style></defs><path class="cls-1" d="M407.22,98.75H92.74a6.68,6.68,0,0,1-6.68-6.68V56.68A6.68,6.68,0,0,1,92.74,50H407.22a6.68,6.68,0,0,1,6.68,6.68V92.07A6.68,6.68,0,0,1,407.22,98.75ZM99.42,85.39H400.54v-22H99.42Z"/><path class="cls-1" d="M187,98.75a6.67,6.67,0,0,1-6.68-6.68V56.68a6.68,6.68,0,1,1,13.36,0V92.07A6.69,6.69,0,0,1,187,98.75Z"/><path class="cls-1" d="M293.13,98.75a6.68,6.68,0,0,1-6.68-6.68V56.68a6.68,6.68,0,0,1,13.36,0V92.07A6.68,6.68,0,0,1,293.13,98.75Z"/><path class="cls-1" d="M176.48,339.6H112.25a6.67,6.67,0,0,1-6.68-6.68V259.53a6.68,6.68,0,0,1,6.68-6.68h64.23a6.68,6.68,0,0,1,6.68,6.68v73.39A6.67,6.67,0,0,1,176.48,339.6Zm-57.55-13.36H169.8v-60H118.93Z"/><path class="cls-1" d="M176.48,266.21H112.25a6.68,6.68,0,0,1-6.68-6.68v-17a6.68,6.68,0,0,1,6.68-6.67h64.23a6.68,6.68,0,0,1,6.68,6.67v17A6.68,6.68,0,0,1,176.48,266.21Zm-57.55-13.36H169.8v-3.68H118.93Z"/><path class="cls-1" d="M254.66,219.86H242.55a6.68,6.68,0,0,1-6.68-6.68V154.12a6.68,6.68,0,0,1,6.68-6.68h12.11a6.68,6.68,0,0,1,6.68,6.68v59.06A6.68,6.68,0,0,1,254.66,219.86Z"/><path class="cls-1" d="M206,450a7.69,7.69,0,0,1-.95-.06,6.69,6.69,0,0,1-5.67-7.56l30.21-211.65c2.56-18,12.93-24.44,21-24.44h0c8.12,0,18.49,6.42,21,24.46l29.59,211.65a6.68,6.68,0,1,1-13.23,1.85L258.46,232.58c-1.19-8.48-4.83-12.93-7.8-12.93h0c-3,0-6.6,4.45-7.81,13L212.64,444.26A6.67,6.67,0,0,1,206,450Z"/><path class="cls-1" d="M449.21,450H294.66a6.68,6.68,0,0,1-6.61-5.75L258.46,232.58c-1.19-8.49-4.83-12.93-7.8-12.93s-6.6,4.45-7.81,13L212.64,444.26A6.66,6.66,0,0,1,206,450H50.79a6.66,6.66,0,0,1-6.62-7.47L86.11,91.28a6.68,6.68,0,0,1,6.63-5.89H407.26a6.68,6.68,0,0,1,6.63,5.89l41.95,351.24a6.68,6.68,0,0,1-6.63,7.47ZM300.48,436.64h141.2L401.33,98.75H98.67L58.32,436.64H200.24l29.39-205.92c2.56-18,12.93-24.44,21-24.44s18.5,6.41,21,24.46Z"/></svg>