<svg id="Layer_1" data-name="Layer 1" xmlns="http://www.w3.org/2000/svg" viewBox="0 0 500 500"><defs><style>.cls-1{fill:#252525;}</style></defs><path class="cls-1" d="M252.84,394.41h-.55c-42.33-.54-64.77-36.91-95.81-87.25-8.14-13.21-17.38-28.18-27.71-43.73C113.1,239.84,77,225.59,62.14,220.56c-5.66-1.92-14.66-8-11.47-27.35,2.43-14.75,11.64-35.27,24.62-54.92,8.08-12.21,23.4-32.7,35.27-32.7a10.81,10.81,0,0,1,2.15.22,423.93,423.93,0,0,1,56.47,15.69c28.11,10.23,40.62,19.66,40.56,30.58-.57,107,69.19,169.1,207.33,184.68,9.94,1.13,17.19,2.44,22.17,4,7.42,2.36,11,6.09,10.74,11.08-.4,7.26-8.66,11.9-31.54,17.76-14.72,3.77-35.57,7.89-60.29,11.94C313.29,388.92,265.56,394.41,252.84,394.41ZM110.51,118.6c-2.82.66-12.9,8.77-26.24,29.7-12,18.75-20.06,37.86-21.17,49.88-.81,8.73,2.22,9.75,3.21,10.1,20,6.77,56,22,73.27,48C150,272,159.33,287,167.53,300.33c29.95,48.56,49.73,80.64,84.93,81.1h.38c11.23,0,55.24-5,97.31-11.7,50.81-8.09,72.33-14.14,81.35-17.58a148.84,148.84,0,0,0-15.89-2.49c-65.73-7.41-117.51-25.51-153.88-53.79-43.44-33.76-65.3-82.17-65-143.85,0-.07-1.35-7.16-32-18.32A417.62,417.62,0,0,0,110.51,118.6Z"/><path class="cls-1" d="M100.08,384.71H70.46A6.5,6.5,0,0,1,64,378.64L53,211.55A6.49,6.49,0,0,1,64.47,207a3.93,3.93,0,0,0,1.87,1.24c12.3,4.18,30.41,11.48,46.73,22.5a6.48,6.48,0,0,1,2.85,5.81l-9.37,142A6.49,6.49,0,0,1,100.08,384.71Zm-23.55-13H94l8.72-132.21a193,193,0,0,0-36.06-17.37Z"/><path class="cls-1" d="M192.35,356.68a6.49,6.49,0,0,1-3.12-12.18L278,295.81a6.48,6.48,0,1,1,6.24,11.37l-88.76,48.7A6.5,6.5,0,0,1,192.35,356.68Z"/><path class="cls-1" d="M181.89,160.82c-25,0-42.66-9.4-53.87-18.44a83.66,83.66,0,0,1-22.48-27.52,6.49,6.49,0,0,1,11.8-5.39,72.27,72.27,0,0,0,19.25,23.15c17.64,14,39.62,18.39,65.35,13.08a6.49,6.49,0,0,1,2.63,12.71A112.16,112.16,0,0,1,181.89,160.82Z"/></svg>